<?xml version="1.0" encoding="UTF-8"?>
<svg id="Layer_2" data-name="Layer 2" xmlns="http://www.w3.org/2000/svg" viewBox="0 0 95 68.97">
  <style>
    :root {
      --primary-color: black;
      --secondary-color: white;
    }

    @media (prefers-color-scheme: dark) {
      :root {
        --primary-color: white;
        --secondary-color: black;
      }
    }

    path {
      fill: var(--primary-color);
    }
  </style>
  <g id="Layer_1-2" data-name="Layer 1">
    <path d="M82.78,27.43c.15-.78.23-1.59.23-2.41,0-7.18-5.82-13.01-13.02-13.01-2.16,0-4.21.53-6,1.47C59.63,5.45,51.12,0,41.35,0,27.1,0,15.55,11.55,15.55,25.8c0,.29,0,.57.03.86C6.31,29.33-.38,38.04.02,48.25c.46,11.66,10.4,20.72,22.07,20.72h52.44c11.12,0,20.48-11.91,20.48-23.04,0-8.31-5.04-15.43-12.22-18.51h0ZM40.9,29.21c1.07-.3,2.21-.08,3.1.59l7.41,5.18-8.73,2.79-4.56-7.67,2.77-.89h0ZM73.65,41.23l-18.2,4.36-6.66,12.07c-.67,1.21-1.86,2.04-3.22,2.25l-2,.3.51-11.9-14.32,3.22c-1.91.43-3.89-.34-5.01-1.95l-5.45-7.86,3.39-1.12c.83-.27,1.74-.09,2.4.48l3.86,3.34,32.24-10.29c3.14-.96,7.08-1.26,9.76.72.98.73,2,1.41,3.02,2.07,1.55,1,3.15,3.14-.31,4.34h0Z"/>
  </g>
</svg>
